<svg width="512" height="512" viewBox="0 0 512 512" fill="none" xmlns="http://www.w3.org/2000/svg">
<path d="M217.6 96.1C204.65 95.475 192.94 105.256 192.08 118.47C191.2 131.7 201.2 143.1 214.4 143.1C293.93 148.288 362.8 217.19 368 296.7C368.828 309.39 379.39 319.13 391.94 319.13C392.467 319.125 392.993 319.104 393.518 319.067C406.738 318.224 416.768 306.787 415.908 293.567C409.3 191.8 320.3 102.8 217.6 96.1ZM224 0C206.3 0 192 14.31 192 32C192 49.69 206.33 64 224 64C347.5 64 448 164.5 448 288C448 305.69 462.33 320 480 320C497.67 320 512 305.69 512 288C512 129.2 382.8 0 224 0ZM172.3 226.8C157.7 223.9 144 235.8 144 250.6V300.97C144 311.22 151.127 319.34 160.75 322.07C178.88 328.82 192.01 346.45 192.01 366.17C192.01 392.67 170.51 413.27 144 413.27C117.5 413.27 95.99 391.77 95.99 366.17V120C95.99 106.75 85.24 96.9 71.98 96.9L23.97 96.908C10.75 96.02 0 106.8 0 120V367.1C0 456.6 82.14 527.3 175 507.8C229.38 496.3 273.27 452.3 284.8 398.1C302.2 316.1 247.8 241.8 172.3 226.8Z" fill="#FF7E67"/>
</svg>
